<svg id="Layer_1"  height="512" viewBox="0 0 512 512" width="512" xmlns="http://www.w3.org/2000/svg"><g><path d="m408 256c0 83.95-68.05 152-152 152-8.17 0-16.18-.64-24-1.89-72.55-11.5-128-74.33-128-150.11s55.45-138.61 128-150.11c7.82-1.25 15.83-1.89 24-1.89 83.95 0 152 68.05 152 152z" fill="#f7a5f5"/><path d="m408 256c0 83.95-68.05 152-152 152-8.17 0-16.17-.64-23.99-1.89 72.54-11.51 127.99-74.33 127.99-150.11s-55.45-138.6-127.99-150.11c7.82-1.25 15.82-1.89 23.99-1.89 83.95 0 152 68.05 152 152z" fill="#f78ff5"/><path d="m480 224c-11.818 0-22.153 6.445-27.695 16h-29.065c-3.26-34.338-16.889-65.697-37.727-90.886l20.609-20.609c11.061 2.941 22.793-.165 30.897-8.27 12.477-12.477 12.477-32.778 0-45.254-12.477-12.478-32.778-12.477-45.254 0-8.357 8.357-11.108 20.222-8.27 30.897l-20.609 20.609c-25.189-20.838-56.548-34.467-90.886-37.727v-29.065c9.555-5.542 16-15.877 16-27.695 0-17.645-14.355-32-32-32s-32 14.355-32 32c0 11.818 6.445 22.153 16 27.695v29.065c-34.338 3.26-65.697 16.889-90.886 37.727l-20.609-20.609c2.838-10.675.087-22.54-8.27-30.897-12.476-12.477-32.777-12.478-45.254 0-12.477 12.477-12.477 32.778 0 45.254 8.091 8.092 19.821 11.214 30.897 8.27l20.609 20.609c-20.838 25.189-34.467 56.548-37.727 90.886h-29.065c-5.542-9.555-15.877-16-27.695-16-17.645 0-32 14.355-32 32s14.355 32 32 32c11.818 0 22.153-6.445 27.695-16h29.065c3.26 34.338 16.889 65.697 37.727 90.886l-20.609 20.609c-10.675-2.838-22.54-.087-30.897 8.27-12.477 12.477-12.477 32.778 0 45.254 12.476 12.477 32.777 12.478 45.254 0 8.357-8.357 11.108-20.222 8.27-30.897l20.609-20.609c25.189 20.838 56.548 34.467 90.886 37.727v29.065c-9.555 5.542-16 15.877-16 27.695 0 17.645 14.355 32 32 32s32-14.355 32-32c0-11.818-6.445-22.153-16-27.695v-29.065c34.338-3.26 65.697-16.889 90.886-37.727l20.609 20.609c-2.838 10.675-.087 22.54 8.27 30.897 12.476 12.477 32.777 12.478 45.254 0 12.477-12.477 12.477-32.778 0-45.254-8.357-8.357-20.222-11.108-30.897-8.27l-20.609-20.609c20.838-25.189 34.467-56.548 37.727-90.886h29.065c5.542 9.555 15.877 16 27.695 16 17.645 0 32-14.355 32-32s-14.355-32-32-32zm-208 167.06v-7.06c0-8.836-7.164-16-16-16s-16 7.164-16 16v7.06c-62.23-7.32-111.74-56.83-119.06-119.06h7.06c8.836 0 16-7.164 16-16s-7.164-16-16-16h-7.06c7.32-62.23 56.83-111.74 119.06-119.06v7.06c0 8.836 7.164 16 16 16s16-7.164 16-16v-7.06c62.23 7.32 111.74 56.83 119.06 119.06h-7.06c-8.836 0-16 7.164-16 16s7.164 16 16 16h7.06c-7.32 62.23-56.83 111.74-119.06 119.06z" fill="#fc00f8" /><circle cx="203" cy="220" r="28" fill="#fc00f8" /><circle cx="272" cy="312" r="32" fill="#fc00f8" /><circle cx="328" cy="208" r="24" fill="#fc00f8"/></g></svg>